<?xml version="1.0" encoding="utf-8"?>
<!-- Generator: Adobe Illustrator 27.2.0, SVG Export Plug-In . SVG Version: 6.00 Build 0)  -->
<svg version="1.2" baseProfile="tiny" id="Layer_1" xmlns="http://www.w3.org/2000/svg" xmlns:xlink="http://www.w3.org/1999/xlink"
	 x="0px" y="0px" viewBox="0 0 2700 1080" overflow="visible" xml:space="preserve">
<g>
	<path fill="#222222" d="M2550,1080H150c-82.8,0-150-67.2-150-150V150C0,67.2,67.2,0,150,0h2400c82.8,0,150,67.2,150,150v780
		C2700,1012.8,2632.8,1080,2550,1080z"/>
</g>
<g>
	<path fill="#FF95BE" d="M443.6,298.3c0,15.6-2.7,29.3-8.1,40.9c-5.4,11.7-12.8,21.4-22.2,29.1c-9.4,7.7-20.4,13.6-33,17.4
		c-12.6,3.9-26.1,5.8-40.6,5.8c-5.6,0-11.7-0.7-18.4-2.2c-6.7-1.5-13.4-3.3-20.3-5.6c-6.8-2.2-13.4-4.6-19.7-7.2
		c-6.3-2.6-11.9-5-16.8-7.3L272,299c9.7,5.8,20.4,10.2,32.2,13.2c11.8,3,23.4,4.5,34.8,4.5c2.2,0,4.8-0.1,7.9-0.3
		c3.1-0.2,6-0.7,8.8-1.5c2.8-0.9,5.2-2.1,7.1-3.8c1.9-1.7,2.9-4.2,2.9-7.3c0-2.2-0.7-4-2.1-5.6c-1.4-1.5-3.1-2.8-5.3-3.8
		c-2.2-1-4.6-1.7-7.3-2.2c-2.7-0.5-5.4-0.9-8-1.1c-2.6-0.2-5.1-0.3-7.3-0.3c-2.3,0-4.1,0-5.5,0c-9.8,0-18.7-1.7-26.7-5.1
		c-8-3.4-14.9-8.2-20.7-14.3c-5.8-6.1-10.2-13.3-13.4-21.7c-3.2-8.4-4.8-17.5-4.8-27.3c0-13.4,2.7-25.5,8.1-36.1
		c5.4-10.7,12.6-19.7,21.7-27.2c9.1-7.5,19.5-13.2,31.2-17.2c11.7-4,23.9-6,36.4-6c5.6,0,11.3,0.2,17.3,0.6
		c5.9,0.4,11.8,1.1,17.7,2.1c5.9,1,11.6,2.3,17.2,3.9c5.6,1.6,10.9,3.6,15.9,6l-6.5,69.4c-7.7-2.6-15.9-4.8-24.4-6.6
		c-8.5-1.8-16.8-2.6-24.9-2.6c-1.5,0-3.4,0-5.7,0.1c-2.3,0.1-4.8,0.2-7.3,0.5c-2.6,0.3-5.2,0.7-7.8,1.3c-2.6,0.6-5,1.3-7,2.3
		c-2.1,1-3.7,2.3-5,3.8c-1.3,1.6-1.8,3.5-1.7,5.6c0.1,2.5,1.1,4.5,2.8,6.1c1.8,1.5,4,2.7,6.8,3.6c2.8,0.9,5.9,1.5,9.2,1.8
		c3.4,0.3,6.7,0.5,10,0.6c3.3,0.1,6.4,0.1,9.2,0c2.8-0.1,5.2,0,7,0.3c9.1,0.6,17.3,2.5,24.6,5.8c7.3,3.3,13.5,7.7,18.5,13.2
		c5.1,5.5,8.9,12,11.6,19.6C442.2,280.8,443.6,289.2,443.6,298.3z"/>
	<path fill="#FF95BE" d="M631,144.8l-1.7,72.5l-50.9,2.1l-13,162l-72.1,3.8l0.3-162l-50.9,2.7l2.1-80.7L631,144.8z"/>
	<path fill="#FF95BE" d="M840.7,224.5c0,8.9-0.8,16.9-2.3,24.2c-1.5,7.2-4,13.9-7.3,19.9c-3.3,6-7.6,11.6-12.8,16.7
		c-5.2,5.1-11.6,10-19,14.7l40.7,72.5l-76.9,15l-26.3-72.8l-21.2,0.7l-3.1,71.1h-73.5c0.6-26,1.1-51.8,1.6-77.6
		c0.5-25.7,1.1-51.6,1.8-77.6c0.2-13.1,0.5-26.1,0.7-39c0.2-12.9,0.7-25.9,1.4-39c8-3,15.8-5.4,23.6-7.3c7.7-1.9,15.5-3.4,23.3-4.5
		c7.8-1.1,15.7-1.8,23.8-2.2c8-0.4,16.3-0.6,24.7-0.6c13,0,25.5,1.8,37.7,5.4c12.1,3.6,22.9,9,32.2,16.2
		c9.3,7.2,16.8,16.1,22.5,26.8C837.9,197.7,840.7,210.2,840.7,224.5z M764.2,229.9c0-4.8-0.7-9.2-2-13.2c-1.3-4-3.2-7.4-5.8-10.3
		c-2.6-2.9-5.8-5.2-9.6-6.8c-3.8-1.7-8.3-2.5-13.4-2.5c-2.3,0-4.5,0.1-6.7,0.4c-2.2,0.3-4.3,0.7-6.3,1.3l-2.7,63.6h4.1
		c4.9,0,9.9-0.6,15-1.9c5.1-1.3,9.6-3.2,13.7-5.8c4-2.6,7.3-6,9.9-10.1C762.9,240.5,764.2,235.6,764.2,229.9z"/>
	<path fill="#FF95BE" d="M1434.3,152l-40,236.9l-97.1,2.1l-20.8-122.7L1255.5,382l-97.1,3.4L1118.1,152l84.8-7.5l17.1,141.8
		l22.9-141.8h66.7l26.7,143.6l13.7-143.6L1434.3,152z"/>
	<path fill="#FF95BE" d="M1642.6,328.4c0,9.5-1.7,17.6-5.2,24.4c-3.5,6.8-8.1,12.6-13.9,17.4s-12.5,8.7-20.1,11.7
		c-7.6,3-15.5,5.4-23.7,7.1s-16.4,2.8-24.7,3.4c-8.3,0.6-16,0.9-23.2,0.9c-7.1,0-14.4-0.3-22-0.8c-7.6-0.5-15.1-1.4-22.6-2.6
		s-14.9-2.9-22.2-5c-7.3-2.1-14.2-4.8-20.7-7.9l-0.3-220.1c6.4-2.6,13.2-5,20.3-7.1c7.2-2.1,14.5-3.9,22-5.3
		c7.5-1.4,14.9-2.5,22.3-3.2c7.4-0.7,14.6-1.1,21.5-1.1c8.1,0,16.3,0.5,24.5,1.5c8.3,1,16.2,2.7,23.8,5.1c7.6,2.4,14.8,5.5,21.4,9.3
		c6.6,3.8,12.4,8.5,17.3,14.1c5,5.6,8.8,12.1,11.6,19.5c2.8,7.4,4.2,16,4.2,25.6c0,6.4-0.9,12.4-2.7,17.9c-1.8,5.6-4.4,10.6-7.9,15
		s-7.6,8.2-12.5,11.4c-4.9,3.1-10.4,5.4-16.6,6.9c7.4,1.9,14.2,4.8,20.3,8.5c6.1,3.8,11.3,8.3,15.6,13.7c4.3,5.4,7.6,11.4,9.9,18.1
		C1641.4,313.5,1642.6,320.7,1642.6,328.4z M1531.5,286.7c-3.3,0-6.5,0.3-9.6,1l-0.7,39c1.7,0.3,3.4,0.7,5,0.9
		c1.6,0.3,3.3,0.4,4.9,0.4c2.4,0,5-0.3,7.9-0.8c2.8-0.5,5.5-1.5,8-3.1c2.5-1.5,4.6-3.6,6.2-6.2c1.6-2.6,2.5-6.1,2.5-10.4
		c0-4.3-0.8-7.9-2.5-10.6c-1.7-2.7-3.7-4.9-6.1-6.4c-2.4-1.5-5-2.6-7.9-3.1C1536.5,286.9,1533.9,286.7,1531.5,286.7z M1555.8,230.9
		c0-3.3-0.7-6.1-2.1-8.5c-1.4-2.3-3-4.2-5-5.7c-2-1.5-4.2-2.6-6.5-3.2c-2.3-0.7-4.4-1-6.2-1c-2.3,0-4.5,0.3-6.7,1
		c-2.2,0.7-4.3,1.5-6.3,2.4l-1,37.9c2.6,0,5.9-0.2,9.7-0.7c3.9-0.5,7.6-1.5,11.2-3c3.6-1.5,6.6-3.8,9.1-6.8
		C1554.5,240.3,1555.8,236.2,1555.8,230.9z"/>
	<path fill="#FF95BE" d="M1813.5,142.8c-0.7,10.7-1.3,21.3-1.9,31.8c-0.6,10.5-1.3,21.1-2.2,31.8l-72.5,3.8l-1.7,21.5h50.9l-3.8,53
		l-51.3,1.7l-1.7,25h42.4h30.1c-0.7,12.5-1.4,25-2.1,37.3c-0.7,12.4-1.4,24.8-2,37.2l-147.3,3.4l5.5-246.4H1813.5z"/>
	<path fill="#FF95BE" d="M2019.6,224.5c0,8.9-0.8,16.9-2.3,24.2c-1.5,7.2-4,13.9-7.3,19.9c-3.3,6-7.6,11.6-12.8,16.7
		c-5.2,5.1-11.6,10-19,14.7l40.7,72.5l-76.9,15l-26.3-72.8l-21.2,0.7l-3.1,71.1h-73.5c0.6-26,1.1-51.8,1.6-77.6
		c0.5-25.7,1.1-51.6,1.8-77.6c0.2-13.1,0.5-26.1,0.7-39c0.2-12.9,0.7-25.9,1.4-39c8-3,15.8-5.4,23.6-7.3c7.7-1.9,15.5-3.4,23.3-4.5
		c7.8-1.1,15.7-1.8,23.8-2.2c8-0.4,16.3-0.6,24.7-0.6c13,0,25.5,1.8,37.7,5.4c12.1,3.6,22.9,9,32.2,16.2
		c9.3,7.2,16.8,16.1,22.5,26.8C2016.8,197.7,2019.6,210.2,2019.6,224.5z M1943,229.9c0-4.8-0.7-9.2-2-13.2c-1.3-4-3.2-7.4-5.8-10.3
		c-2.6-2.9-5.8-5.2-9.6-6.8c-3.8-1.7-8.3-2.5-13.4-2.5c-2.3,0-4.5,0.1-6.7,0.4c-2.2,0.3-4.3,0.7-6.3,1.3l-2.7,63.6h4.1
		c4.9,0,9.9-0.6,15-1.9c5.1-1.3,9.6-3.2,13.7-5.8c4-2.6,7.3-6,9.9-10.1C1941.7,240.5,1943,235.6,1943,229.9z"/>
	<path fill="#FF95BE" d="M2231.7,224.5c0,8.9-0.8,16.9-2.3,24.2c-1.5,7.2-4,13.9-7.3,19.9c-3.3,6-7.6,11.6-12.8,16.7
		c-5.2,5.1-11.6,10-19,14.7l40.7,72.5l-76.9,15l-26.3-72.8l-21.2,0.7l-3.1,71.1H2030c0.6-26,1.1-51.8,1.6-77.6
		c0.5-25.7,1.1-51.6,1.8-77.6c0.2-13.1,0.5-26.1,0.7-39c0.2-12.9,0.7-25.9,1.4-39c8-3,15.8-5.4,23.6-7.3c7.7-1.9,15.5-3.4,23.3-4.5
		c7.8-1.1,15.7-1.8,23.8-2.2c8-0.4,16.3-0.6,24.7-0.6c13,0,25.5,1.8,37.7,5.4c12.1,3.6,22.9,9,32.2,16.2
		c9.3,7.2,16.8,16.1,22.5,26.8C2228.8,197.7,2231.7,210.2,2231.7,224.5z M2155.1,229.9c0-4.8-0.7-9.2-2-13.2
		c-1.3-4-3.2-7.4-5.8-10.3c-2.6-2.9-5.8-5.2-9.6-6.8c-3.8-1.7-8.3-2.5-13.4-2.5c-2.3,0-4.5,0.1-6.7,0.4c-2.2,0.3-4.3,0.7-6.3,1.3
		l-2.7,63.6h4.1c4.9,0,9.9-0.6,15-1.9c5.1-1.3,9.6-3.2,13.7-5.8c4-2.6,7.3-6,9.9-10.1C2153.8,240.5,2155.1,235.6,2155.1,229.9z"/>
	<path fill="#FF95BE" d="M2455.5,157.8l-94,131.2l-4.4,107h-81l2.1-106.3l-48.9-126.8l87.2-10.9l13.7,73.8l43.4-73.8L2455.5,157.8z"
		/>
	<path fill="#FFFFFF" d="M594.9,820.4c-7.9,9.9-17.7,18.6-29.3,26c-11.6,7.4-24.1,13.6-37.4,18.4c-13.3,4.9-26.9,8.5-40.9,11
		c-14,2.4-27.3,3.7-39.9,3.7c-24.4,0-46.9-4.4-67.4-13.1c-20.5-8.8-38.3-20.8-53.2-36.2c-14.9-15.4-26.6-33.5-35-54.4
		c-8.4-20.9-12.6-43.3-12.6-67.4c0-18.3,2.1-36.3,6.3-53.9c4.2-17.6,10.2-34.2,18.1-49.7c7.8-15.6,17.4-29.9,28.7-42.9
		c11.3-13,24.1-24.3,38.4-33.7c14.3-9.4,30-16.7,47-22c17-5.2,35.2-7.8,54.5-7.8c7.2,0,15,0.3,23.2,0.9c8.2,0.6,16.5,1.6,24.6,3
		c8.2,1.4,16.1,3.4,23.9,5.9c7.7,2.5,14.8,5.6,21.2,9.3l-7.1,96.5c-9.4-3.5-19.2-5.9-29.2-7.2c-10-1.3-19.8-1.9-29.4-1.9
		c-13.5,0-26.1,2.1-37.8,6.2c-11.7,4.1-21.9,10.1-30.6,17.8c-8.7,7.7-15.5,17.2-20.6,28.3s-7.6,23.7-7.6,37.6
		c0,8.8,1.2,17.2,3.5,25.4c2.4,8.2,5.9,15.4,10.7,21.7s10.8,11.4,17.9,15.3c7.2,3.9,15.4,5.8,24.9,5.8c6.4,0,13-0.8,19.8-2.5
		c6.8-1.7,12.7-4.5,17.5-8.6l1-19.7l-60.6-1l3-75.8c25.1-0.8,50.2-1.6,75.2-2.1c25.1-0.6,50.3-1.4,75.8-2.4L594.9,820.4z"/>
	<path fill="#FFFFFF" d="M1069,871.9l-126.3,6.1l-1-116.7h-58.1l-3.5,110.6H767l9.6-355l120.2,5.6l-7.6,181.3h56.1l0.5-194.9
		l115.1,3L1069,871.9z"/>
	<path fill="#FFFFFF" d="M1560.2,693.6c0,15.3-1.8,30.1-5.3,44.3c-3.5,14.2-8.6,27.6-15.3,40c-6.7,12.5-14.7,23.9-24.2,34.2
		c-9.5,10.4-20.2,19.2-32.1,26.6c-11.9,7.4-24.8,13.2-38.8,17.3c-14,4.1-28.8,6.2-44.4,6.2c-15.2,0-29.6-1.9-43.3-5.8
		c-13.7-3.9-26.6-9.3-38.5-16.3c-12-7-22.8-15.4-32.4-25.3c-9.7-9.8-17.9-20.8-24.7-32.8c-6.8-12-12.1-25-15.9-38.8
		c-3.8-13.8-5.7-28.2-5.7-43.2c0-14.6,1.8-29,5.3-43.1c3.5-14.1,8.6-27.3,15.3-39.8c6.6-12.5,14.7-23.9,24.1-34.3
		c9.4-10.4,20-19.4,31.7-27c11.7-7.6,24.4-13.5,38-17.7c13.6-4.2,28-6.3,43.2-6.3c24.4,0,46.7,3.8,66.8,11.4
		c20.1,7.6,37.3,18.4,51.5,32.4c14.2,14.1,25.3,31.1,33.1,51C1556.3,646.8,1560.2,669,1560.2,693.6z M1448.1,700.2
		c0-7.2-1.1-14.3-3.2-21.1c-2.1-6.8-5.2-12.9-9.2-18.2s-9.1-9.6-15-12.9c-6-3.3-12.8-4.9-20.6-4.9c-7.9,0-15,1.4-21.2,4.3
		c-6.2,2.9-11.6,6.8-16,11.7c-4.5,5-7.9,10.8-10.2,17.4c-2.4,6.7-3.5,13.7-3.5,21.1c0,7.1,1,14.1,3,21.2s5,13.5,9.1,19.2
		c4,5.7,9,10.4,15,13.9c6,3.5,12.9,5.3,20.8,5.3c7.9,0,15-1.6,21.3-4.7c6.3-3.1,11.7-7.3,16-12.6c4.4-5.3,7.7-11.4,10.1-18.3
		C1446.9,714.7,1448.1,707.6,1448.1,700.2z"/>
	<path fill="#FFFFFF" d="M1989.1,737.5c0,23.1-4,43.2-12,60.5c-8,17.3-18.9,31.6-32.8,43.1c-13.9,11.5-30.1,20-48.7,25.8
		c-18.6,5.7-38.6,8.6-60,8.6c-8.2,0-17.3-1.1-27.1-3.3c-9.8-2.2-19.8-4.9-29.9-8.2c-10.1-3.3-19.8-6.8-29.2-10.6
		c-9.3-3.8-17.6-7.4-24.9-10.7l11.1-104c14.3,8.6,30.2,15.1,47.6,19.6c17.4,4.5,34.6,6.7,51.4,6.7c3.2,0,7.1-0.1,11.6-0.4
		c4.5-0.3,8.9-1,13-2.3c4.1-1.3,7.6-3.2,10.5-5.7c2.9-2.5,4.3-6.1,4.3-10.9c0-3.2-1-5.9-3-8.2c-2-2.3-4.6-4.1-7.8-5.6
		c-3.2-1.4-6.8-2.5-10.9-3.3c-4-0.8-8-1.3-11.9-1.6c-3.9-0.3-7.5-0.5-10.9-0.5c-3.4,0-6.1,0-8.1,0c-14.5,0-27.6-2.5-39.5-7.6
		c-11.9-5-22.1-12.1-30.6-21.1c-8.5-9-15.1-19.7-19.8-32.1c-4.7-12.4-7.1-25.8-7.1-40.3c0-19.9,4-37.7,12-53.4
		c8-15.7,18.7-29.1,32.1-40.1c13.4-11,28.7-19.5,46.1-25.4c17.3-5.9,35.3-8.8,53.8-8.8c8.2,0,16.7,0.3,25.5,0.9
		c8.8,0.6,17.5,1.6,26.1,3.2c8.7,1.5,17.1,3.5,25.4,5.8c8.2,2.4,16.1,5.3,23.5,8.8l-9.6,102.5c-11.5-3.9-23.4-7.1-36-9.7
		c-12.5-2.6-24.8-3.9-36.7-3.9c-2.2,0-5,0-8.5,0.1c-3.5,0.1-7.1,0.3-10.9,0.8c-3.8,0.4-7.6,1.1-11.5,1.9c-3.9,0.8-7.3,2-10.4,3.4
		c-3,1.4-5.5,3.3-7.3,5.7c-1.9,2.4-2.7,5.1-2.5,8.3c0.2,3.7,1.6,6.7,4.2,9c2.6,2.3,6,4,10.1,5.3c4.1,1.3,8.7,2.1,13.6,2.7
		c5,0.5,9.9,0.8,14.8,0.9c4.9,0.1,9.4,0.1,13.6,0c4.2-0.1,7.7,0,10.4,0.4c13.5,0.8,25.6,3.7,36.4,8.6c10.8,4.9,19.9,11.4,27.4,19.4
		c7.5,8.1,13.2,17.7,17.2,28.9C1987.1,711.7,1989.1,724.1,1989.1,737.5z"/>
	<path fill="#FFFFFF" d="M2421.2,510.8l-2.5,107.1l-75.2,3l-19.2,239.4l-106.6,5.6l0.5-239.4l-75.2,4l3-119.2L2421.2,510.8z"/>
</g>
<g>
	<g>
		<g>
			<g>
				<path fill="#FF95BE" d="M1095.6,254.3v101.4c0,4.7-1,9.2-2.8,13.3c-3.9,9.1-11.8,16.6-21.9,20.9c-6,2.6-12.8,4-20,4v20.3
					c0,2-1,3.8-2.5,5.1c0,0,0,0,0,0c-0.4,0.3-0.9,0.6-1.3,0.9l0,0c-11.3,7.4-25.4,11.8-40.8,11.8c-15.4,0-29.5-4.4-40.8-11.8
					c-0.4-0.3-0.9-0.6-1.3-0.9c0,0,0,0,0,0c-1.6-1.3-2.6-3.1-2.6-5.2v-7h-10.6c0,0,0,0,0,0c-0.2,0-0.4,0-0.5,0
					c-11.9,0-22.7-4-30.7-10.5c0,0,0,0,0,0c-0.1-0.1-0.3-0.2-0.4-0.3l0,0c-1.5-1.3-2.4-3.1-2.4-5v-3.3c-1.8,0-3.6-0.1-5.4-0.3
					c-14.3-1.5-26.5-8.7-33.3-18.8c-3.8-5.6-6-12.2-6-19.1V197c0-6.5,0.8-12.9,2.2-19.1c0,0,0,0,0,0c3.4-14.1,10.3-27.1,20.1-38.2
					c6.4-7.2,13.9-13.7,22.3-19.1c7.2-4.6,15.1-8.5,23.5-11.6c6.7-2.4,13.8-4.3,21.1-5.6c7.2-1.3,14.7-1.9,22.3-1.9
					c7.7,0,15.1,0.7,22.3,1.9c16.5,2.9,31.7,8.8,44.7,17.2c0,0,0,0,0,0c21.4,13.8,36.9,34,42.4,57.3c1.3,5.6,2.1,11.4,2.2,17.3
					L1095.6,254.3L1095.6,254.3z"/>
			</g>
			<g>
				<path fill="#FF82A1" d="M1095.6,355.8c0,4.7-1,9.2-2.8,13.3c-3.9,9.1-11.8,16.6-21.9,20.9c-6,2.6-12.8,4-20,4v20.3
					c0,2-1,3.8-2.5,5.1c0,0,0,0,0,0c-0.4,0.3-0.9,0.6-1.3,0.9l0,0c-11.3,7.4-25.4,11.8-40.8,11.8c-15.4,0-29.5-4.4-40.8-11.8
					c-0.4-0.3-0.9-0.6-1.3-0.9c0,0,0,0,0,0c-1.6-1.3-2.6-3.1-2.6-5.2v-7h-10.6c0,0,0,0,0,0c-0.2,0-0.4,0-0.5,0
					c-11.9,0-22.7-4-30.7-10.5c0,0,0,0,0,0c-0.1-0.1-0.3-0.2-0.4-0.3l0,0c-1.5-1.3-2.4-3.1-2.4-5v-3.3c-1.8,0-3.6-0.1-5.4-0.3
					c-14.3-1.5-26.5-8.7-33.3-18.8c-3.8-5.6-6-12.2-6-19.1c0,0,1.5-78.6,1.5-78.6c8.5,76.7,25.3,86.5,40.7,83.1
					c1.9-0.4,1.3-49.7,3.2-49.3c7,64.4,9.3,86.7,44,82c1.7-0.2,1-19.4,2.4-18.5c60.1,39.5,80.3-33.4,86.6-65.2
					c2.6,36-0.6,36.4,3.2,58.8c21.9,9,43.3-85.9,41.6-143L1095.6,355.8z"/>
			</g>
			<g>
				<path fill="#FFB3CA" d="M983.9,105.7c-7.2,0-14.4,0.6-21.4,1.8c-6.9,1.2-13.7,3-20.2,5.4c-8,2.9-15.5,6.6-22.5,11.1
					c-8.1,5.2-15.3,11.3-21.4,18.3c-4.9,5.6-9.1,11.6-12.3,18c13,22.2,39.7,37.4,70.7,37.4c43.6,0,79-30.3,79-67.6
					c0-4.6-0.5-9.1-1.6-13.5c-9.1-4.2-18.8-7.2-29-9C998.2,106.3,991.1,105.7,983.9,105.7z"/>
			</g>
			<g>
				<path fill="#404041" d="M1100.5,250.1v-54.9l0-0.1c-0.1-6.1-0.9-12.2-2.3-18.1c-5.6-23.8-21.3-45-44.1-59.7l-0.3-0.2
					c-0.1-0.1-0.2-0.1-0.3-0.2l0,0c-6.7-4.3-14-8-21.6-10.9c-0.5-0.2-0.9-0.4-1.4-0.5c-7.5-2.8-15.3-4.9-23.3-6.3
					c-7.6-1.3-15.5-2-23.3-2c-7.9,0-15.7,0.7-23.3,2c-7.6,1.3-15,3.3-22.1,5.9c-8.7,3.2-17,7.2-24.6,12.1
					c-8.8,5.7-16.7,12.4-23.3,20c-3.5,3.9-6.6,8.1-9.3,12.4c-1.3,2.1-2.5,4.2-3.7,6.3c-3.5,6.7-6.2,13.7-7.9,20.9l-0.2,0.4v0.3
					c-1.5,6.4-2.2,13-2.2,19.5v152.9c0,7.5,2.3,14.8,6.6,21.2c3.8,5.6,9.1,10.5,15.4,14.1c6.4,3.7,13.9,6.1,21.6,6.8
					c0.3,0,0.7,0.1,1,0.1c0.2,2.7,1.5,5.3,3.8,7.3l0.5,0.4c0,0,0,0,0,0l0,0c0,0,0,0,0.1,0.1c8.2,6.6,18.6,10.6,29.7,11.4l1.5,0.1
					l9.1,0.1v2.8c0,3.1,1.4,6,4,8.2l0.6,0.5l0.2,0.1c0.3,0.2,0.7,0.4,1,0.7c6.2,4,13,7.2,20.3,9.4c7.6,2.2,15.5,3.4,23.5,3.4
					c8.1,0,16-1.1,23.5-3.4c7.3-2.2,14.1-5.3,20.3-9.3l0.3-0.2l0,0c0.3-0.2,0.7-0.5,1.1-0.7c0.1-0.1,0.3-0.2,0.4-0.3
					c2.6-2.2,4-5.1,4-8.2V398c6-0.5,11.8-1.9,17.3-4.3c5.6-2.4,10.5-5.6,14.7-9.6c4.2-4,7.4-8.6,9.6-13.6c2-4.7,3.1-9.7,3.1-14.8
					L1100.5,250.1L1100.5,250.1z M1044.9,416.4L1044.9,416.4C1044.9,416.4,1044.9,416.4,1044.9,416.4
					C1044.9,416.4,1044.9,416.4,1044.9,416.4z M1090.6,355.8c0,4.1-0.8,8-2.5,11.8c-3.5,8.1-10.4,14.7-19.5,18.6
					c-4.1,1.7-8.3,2.9-12.8,3.3c0-0.4,0-0.8,0-1.2l0-2.9l0-2.9c0-3.8-0.1-7.7-0.2-11.5c-0.2-7.7-0.4-15.3-0.8-23
					c-0.4-7.7-0.8-15.3-1.5-23c-0.3-3.8-0.7-7.7-1.1-11.5c-0.4-3.8-0.9-7.7-1.4-11.5c-0.6,3.8-1,7.7-1.4,11.5
					c-0.4,3.8-0.8,7.7-1.1,11.5c-0.6,7.7-1.1,15.3-1.5,23c-0.4,7.7-0.6,15.3-0.8,23c-0.1,3.8-0.1,7.7-0.2,11.5l0,2.9l0,2.9
					c0,0.5,0,1,0,1.5h0v24.6c0,0.7-0.3,1.4-0.9,2c-0.4,0.3-0.7,0.5-1,0.7l-0.2,0.1c-10.9,7.1-23.9,10.9-37.6,10.9
					c-13.8,0-26.9-3.8-37.8-11c-0.3-0.2-0.7-0.5-1-0.7c-0.6-0.5-0.9-1.2-0.9-2v-3.4c0.2-0.2,0.3-0.5,0.3-0.7c0-1,0-1.9,0-2.9l0-2.9
					l0-2.9c0-3.8-0.1-7.7-0.2-11.5c-0.2-7.7-0.4-15.3-0.8-23c-0.4-7.7-0.8-15.3-1.5-23c-0.3-3.8-0.7-7.7-1.1-11.5
					c-0.4-3.8-0.9-7.7-1.4-11.5c-0.6,3.8-1,7.7-1.4,11.5c-0.4,3.8-0.8,7.7-1.1,11.5c-0.6,7.7-1.1,15.3-1.5,23
					c-0.4,7.7-0.6,15.3-0.8,23c-0.1,3.8-0.1,7.7-0.2,11.5l0,1.5h-1l0-0.1l-5,0.1c-0.2,0-0.3,0-0.5,0c-10.2,0-19.9-3.3-27.3-9.3
					c0,0,0,0,0,0l-0.3-0.2c-0.6-0.5-0.9-1.3-0.9-2v-2.2c0-0.1,0.1-0.2,0.1-0.3c0-1,0-1.9,0-2.9l0-2.9l0-2.9c0-3.8-0.1-7.7-0.2-11.5
					c-0.2-7.7-0.4-15.3-0.8-23c-0.4-7.7-0.8-15.3-1.5-23c-0.3-3.8-0.7-7.7-1.1-11.5c-0.4-3.8-0.9-7.7-1.4-11.5
					c-0.6,3.8-1,7.7-1.4,11.5c-0.4,3.8-0.8,7.7-1.1,11.5c-0.6,7.7-1.1,15.3-1.5,23c-0.4,7.7-0.6,15.3-0.8,23
					c-0.1,3.8-0.1,7.7-0.2,11.5l0,2.9l0,0.5c-12.3-1.3-23.3-7.5-29.5-16.7c-3.5-5.1-5.3-11-5.3-17V197c0-6.1,0.7-12.1,2.1-18
					l0.2-0.4v-0.3c1.5-6.3,3.8-12.4,6.8-18.2c3.3-6.3,7.4-12.3,12.3-18c6.1-6.9,13.3-13.1,21.4-18.3c6.9-4.5,14.5-8.2,22.5-11.1
					c6.5-2.3,13.3-4.2,20.2-5.4c7-1.2,14.2-1.8,21.4-1.8c7.2,0,14.4,0.6,21.4,1.8c10.2,1.8,20,4.8,29,9c4.6,2.1,9.1,4.6,13.4,7.3
					l0.3,0.3l0.3,0.1c20.8,13.5,35.1,32.8,40.2,54.6c1.3,5.4,2,11,2.1,16.5v63.3h0V355.8z"/>
			</g>
		</g>
	</g>
	<g>
		<g>
			<ellipse fill="#404041" cx="956.3" cy="197.5" rx="16.6" ry="27.8"/>
		</g>
		<g>
			<ellipse fill="#404041" cx="1013.3" cy="197.5" rx="16.6" ry="27.8"/>
		</g>
	</g>
</g>
</svg>
