<svg id="visual" viewBox="0 0 900 100" width="900" height="100" xmlns="http://www.w3.org/2000/svg" xmlns:xlink="http://www.w3.org/1999/xlink" version="1.1"><path d="M0 47L25 49.8C50 52.7 100 58.3 150 54C200 49.7 250 35.3 300 30C350 24.7 400 28.3 450 31C500 33.7 550 35.3 600 37.7C650 40 700 43 750 39.8C800 36.7 850 27.3 875 22.7L900 18L900 0L875 0C850 0 800 0 750 0C700 0 650 0 600 0C550 0 500 0 450 0C400 0 350 0 300 0C250 0 200 0 150 0C100 0 50 0 25 0L0 0Z" fill="#f7f7f7" stroke-linecap="round" stroke-linejoin="miter"></path></svg>