<svg id="visual" viewBox="0 0 900 100" width="900" height="100" xmlns="http://www.w3.org/2000/svg" xmlns:xlink="http://www.w3.org/1999/xlink" version="1.1"><path d="M0 81L25 72C50 63 100 45 150 36.8C200 28.7 250 30.3 300 38.3C350 46.3 400 60.7 450 66.3C500 72 550 69 600 63.5C650 58 700 50 750 50C800 50 850 58 875 62L900 66L900 101L875 101C850 101 800 101 750 101C700 101 650 101 600 101C550 101 500 101 450 101C400 101 350 101 300 101C250 101 200 101 150 101C100 101 50 101 25 101L0 101Z" fill="#f7f7f7" stroke-linecap="round" stroke-linejoin="miter"></path></svg>