<?xml version="1.0" encoding="utf-8"?>
<!-- Generator: Adobe Illustrator 27.2.0, SVG Export Plug-In . SVG Version: 6.00 Build 0)  -->
<svg version="1.1" id="Layer_1" xmlns="http://www.w3.org/2000/svg" xmlns:xlink="http://www.w3.org/1999/xlink" x="0px" y="0px"
	 viewBox="0 0 1080 1080" style="enable-background:new 0 0 1080 1080;" xml:space="preserve">
<style type="text/css">
	.st0{fill:none;}
	.st1{fill:#D6D6D6;}
	.st2{opacity:0.4;fill:#FF95BE;}
	.st3{fill:#FF95BE;}
	.st4{fill:#FF82A1;}
	.st5{fill:#FFB3CA;}
	.st6{fill:#404041;}
</style>
<rect class="st0" width="1080" height="1080"/>
<g>
	<g>
		<g>
			<ellipse class="st1" cx="540" cy="995.2" rx="381" ry="44.8"/>
			<ellipse class="st2" cx="540" cy="995.2" rx="381" ry="44.8"/>
		</g>
		<g>
			<path class="st3" d="M843.7,493.9v292.8c0,13.5-2.8,26.4-8,38.4c-11.4,26.3-34.2,47.9-63.3,60.4c-17.4,7.5-37,11.6-57.7,11.6
				v58.7c0,5.8-2.8,11.1-7.3,14.9c0,0,0,0,0,0c-1.3,0.9-2.5,1.7-3.9,2.6l0,0c-32.6,21.4-73.5,34.2-117.8,34.2
				c-44.3,0-85.2-12.8-117.8-34.2c-1.3-0.8-2.5-1.7-3.8-2.6c0,0,0,0,0,0c-4.5-3.8-7.4-9-7.4-14.9v-20.3H426c0,0,0,0,0,0
				c-0.5,0-1,0-1.6,0c-34.3,0-65.5-11.5-88.6-30.2c0,0-0.1,0-0.1-0.1c-0.4-0.3-0.7-0.6-1.1-0.9l0,0c-4.3-3.7-6.9-8.9-6.9-14.5v-9.5
				c-5.2,0-10.4-0.3-15.5-0.8c-41.2-4.2-76.4-25-96.3-54.4c-11-16.2-17.3-35.1-17.3-55.2V328.3c0-18.9,2.2-37.4,6.5-55.2
				c0,0,0,0,0,0c9.7-40.8,29.9-78.3,58.1-110.4c18.4-20.9,40.1-39.5,64.5-55.2c20.8-13.4,43.6-24.7,68-33.5
				c19.4-7,39.9-12.5,61.1-16.2c20.8-3.6,42.4-5.5,64.5-5.5c22.1,0,43.7,1.9,64.5,5.5c47.7,8.3,91.5,25.6,129,49.7c0,0,0,0,0,0
				c61.9,39.8,106.6,98.2,122.5,165.6c3.9,16.2,6,33,6.4,50.1L843.7,493.9L843.7,493.9z"/>
			<path class="st4" d="M843.7,786.7c0,13.5-2.8,26.4-8,38.4c-11.4,26.3-34.2,47.9-63.3,60.4c-17.4,7.5-37,11.6-57.7,11.6v58.7
				c0,5.8-2.8,11.1-7.3,14.9c0,0,0,0,0,0c-1.3,0.9-2.5,1.7-3.9,2.6l0,0c-32.6,21.4-73.5,34.2-117.8,34.2
				c-44.3,0-85.2-12.8-117.8-34.2c-1.3-0.8-2.5-1.7-3.8-2.6c0,0,0,0,0,0c-4.5-3.8-7.4-9-7.4-14.9v-20.3H426c0,0,0,0,0,0
				c-0.5,0-1,0-1.6,0c-34.3,0-65.5-11.5-88.6-30.2c0,0-0.1,0-0.1-0.1c-0.4-0.3-0.7-0.6-1.1-0.9l0,0c-4.3-3.7-6.9-8.9-6.9-14.5v-9.5
				c-5.2,0-10.4-0.3-15.5-0.8c-41.2-4.2-76.4-25-96.3-54.4c-11-16.2-17.3-35.1-17.3-55.2c0,0,4.3-227,4.3-227
				c24.5,221.4,73.1,249.8,117.6,240c5.4-1.2,3.8-143.6,9.4-142.5c20.1,186,26.8,250.2,127.1,236.7c4.9-0.7,2.9-56.1,6.9-53.5
				c173.6,114.1,231.9-96.4,250.1-188.2c7.5,103.9-1.7,105.2,9.3,169.8c63.4,26,124.9-248,120-413L843.7,786.7z"/>
			<path class="st5" d="M521.2,64.5c-20.8,0-41.5,1.8-61.7,5.3c-20,3.5-39.6,8.7-58.3,15.5c-23,8.3-44.9,19.1-64.9,32
				c-23.4,15-44.1,32.8-61.7,52.7c-14.3,16.3-26.2,33.6-35.6,51.8c37.4,64,114.8,107.9,204.1,107.9c126,0,228.1-87.4,228.1-195.2
				c0-13.3-1.6-26.3-4.5-38.9c-26.2-12.1-54.3-20.7-83.9-25.9C562.7,66.3,541.9,64.5,521.2,64.5z"/>
			<path class="st6" d="M858,481.6V323.1l0-0.2c-0.4-17.6-2.6-35.2-6.7-52.3c-16.3-68.7-61.5-130-127.2-172.5l-0.8-0.5
				c-0.3-0.2-0.5-0.3-0.8-0.5l-0.1-0.1C703,84.7,682,74,659.9,65.5c-1.4-0.5-2.7-1-4.1-1.6c-21.6-8.1-44.2-14.2-67.3-18.2
				c-22-3.8-44.7-5.8-67.4-5.8c-22.7,0-45.3,1.9-67.4,5.8c-21.8,3.8-43.3,9.5-63.8,16.9c-25.2,9.1-49.1,20.9-71,35
				c-25.5,16.4-48.2,35.8-67.4,57.6c-10,11.4-19,23.4-26.9,35.9c-3.8,6-7.4,12.1-10.6,18.3c-10.2,19.3-17.9,39.6-22.9,60.3l-0.5,1.2
				v0.8c-4.3,18.5-6.5,37.4-6.5,56.4v441.6c0,21.6,6.6,42.8,19.2,61.3c11,16.2,26.4,30.3,44.6,40.7c18.6,10.6,40.2,17.5,62.4,19.7
				c1,0.1,2,0.2,3,0.3c0.6,7.9,4.4,15.3,11,21l1.4,1.2c0,0,0,0,0,0l0,0c0.1,0,0.1,0.1,0.2,0.1c23.6,19.1,53.6,30.6,85.6,33l4.4,0.3
				l26.2,0.2v8.1c0,9,4.1,17.4,11.7,23.6l1.6,1.4l0.7,0.3c1,0.7,1.9,1.3,2.8,1.9c17.8,11.7,37.5,20.8,58.6,27
				c21.8,6.5,44.7,9.7,68,9.7c23.3,0,46.1-3.3,68-9.7c21.1-6.2,40.8-15.3,58.5-27l1-0.6l0,0c1-0.6,2-1.3,3-2.1
				c0.4-0.3,0.8-0.5,1.1-0.8c7.5-6.3,11.7-14.7,11.7-23.7v-47.1c17.4-1.5,34.1-5.6,49.8-12.3c16.1-6.9,30.4-16.3,42.5-27.8
				c12.1-11.6,21.5-24.8,27.8-39.3c5.9-13.6,8.9-28,8.9-42.6L858,481.6L858,481.6z M697.3,961.9L697.3,961.9
				C697.4,961.9,697.4,961.9,697.3,961.9C697.4,961.9,697.4,961.9,697.3,961.9z M829.4,786.7c0,11.7-2.4,23.2-7.1,34.1
				c-10.1,23.4-30.1,42.5-56.2,53.7c-11.7,5-24.1,8.2-37,9.6c0-1.2,0-2.4,0-3.6l0-8.3l-0.1-8.3c-0.1-11.1-0.3-22.1-0.5-33.2
				c-0.5-22.1-1.2-44.3-2.3-66.4c-1.1-22.1-2.4-44.3-4.3-66.4c-0.9-11.1-1.9-22.1-3.1-33.2c-1.2-11.1-2.5-22.1-4.1-33.2
				c-1.7,11.1-2.9,22.1-4.1,33.2c-1.2,11.1-2.2,22.1-3.1,33.2c-1.8,22.1-3.2,44.3-4.3,66.4c-1.1,22.1-1.8,44.3-2.3,66.4
				c-0.2,11.1-0.4,22.1-0.5,33.2l-0.1,8.3l0,8.3c0,1.4,0,2.9,0,4.3h0v71c0,2.1-0.9,4.2-2.6,5.7c-1.1,0.7-2.1,1.4-3,2l-0.5,0.3
				c-31.4,20.5-69,31.4-108.6,31.4c-39.8,0-77.6-11-109.1-31.7c-1-0.6-2-1.3-3-2c-1.7-1.6-2.6-3.6-2.6-5.7v-9.9
				c0.5-0.7,0.7-1.3,0.8-2c0-2.8,0-5.5,0-8.3l0-8.3l-0.1-8.3c-0.1-11.1-0.3-22.1-0.5-33.2c-0.5-22.1-1.2-44.3-2.3-66.4
				c-1.1-22.1-2.4-44.3-4.3-66.4c-0.9-11.1-1.9-22.1-3.1-33.2c-1.2-11.1-2.5-22.1-4.1-33.2c-1.7,11.1-2.9,22.1-4.1,33.2
				c-1.2,11.1-2.2,22.1-3.1,33.2c-1.8,22.1-3.2,44.3-4.3,66.4c-1.1,22.1-1.8,44.3-2.3,66.4c-0.2,11.1-0.4,22.1-0.5,33.2l0,4.3h-2.9
				l0-0.2l-14.5,0.1c-0.5,0-0.9,0-1.4,0c-29.4,0-57.4-9.5-78.8-26.8c0,0-0.1-0.1-0.1-0.1l-0.8-0.7c-1.8-1.6-2.7-3.6-2.7-5.8v-6.5
				c0.1-0.3,0.2-0.6,0.2-1c0-2.8,0-5.5,0-8.3l0-8.3l-0.1-8.3c-0.1-11.1-0.3-22.1-0.5-33.2c-0.5-22.1-1.2-44.3-2.3-66.4
				c-1.1-22.1-2.4-44.3-4.3-66.4c-0.9-11.1-1.9-22.1-3.1-33.2c-1.2-11.1-2.5-22.1-4.1-33.2c-1.7,11.1-2.9,22.1-4.1,33.2
				c-1.2,11.1-2.2,22.1-3.1,33.2c-1.8,22.1-3.2,44.3-4.3,66.4c-1.1,22.1-1.8,44.3-2.3,66.4c-0.2,11.1-0.4,22.1-0.5,33.2l-0.1,8.3
				l0,1.5c-35.4-3.7-67.3-21.8-85.3-48.3c-10-14.8-15.3-31.8-15.3-49.1V328.3c0-17.5,2-35,6-52l0.5-1.2v-0.8
				c4.4-18.2,11-35.7,19.6-52.4c9.4-18.2,21.3-35.6,35.6-51.8c17.6-20,38.3-37.7,61.7-52.7c20-12.9,41.9-23.7,64.9-32
				c18.7-6.8,38.4-12,58.3-15.5c20.2-3.5,40.9-5.3,61.7-5.3c20.8,0,41.5,1.8,61.7,5.3c29.6,5.1,57.6,13.8,83.9,25.9
				c13.4,6.2,26.3,13.2,38.6,21.1l0.9,0.7l0.9,0.4c60,38.9,101.3,94.8,116.2,157.6c3.7,15.6,5.8,31.7,6.1,47.7v182.9h0.1V786.7z"/>
		</g>
	</g>
	<g>
		<ellipse class="st6" cx="441.6" cy="329.8" rx="48" ry="80.3"/>
		<ellipse class="st6" cx="606.2" cy="329.8" rx="48" ry="80.3"/>
	</g>
</g>
</svg>
